<?xml version="1.0" encoding="utf-8"?>
<!-- Generator: Adobe Illustrator 16.0.0, SVG Export Plug-In . SVG Version: 6.00 Build 0)  -->
<!DOCTYPE svg PUBLIC "-//W3C//DTD SVG 1.1//EN" "http://www.w3.org/Graphics/SVG/1.1/DTD/svg11.dtd">
<svg version="1.1" id="Layer_1" xmlns="http://www.w3.org/2000/svg" xmlns:xlink="http://www.w3.org/1999/xlink" x="0px" y="0px"
	 width="50px" height="50px" viewBox="0 0 50 50" enable-background="new 0 0 50 50" xml:space="preserve">
<g>
	<path fill="#F5F5F5" d="M30.805,24.258v17.536h-2.923V12.567h11.693v-2.291h5.699l-0.86-0.852l0.877-0.854h-5.716V0.874h-17.54
		v40.92h-2.924V18.412H1.574v11.688h11.691V47.64h23.386V35.948h11.693v-11.69H30.805z M35.527,3.471h1.987v1.992h-1.987V3.471z
		 M31.974,3.471h1.991v1.992h-1.991V3.471z M5.579,23.153H3.588v-1.993h1.991V23.153z M9,23.153H7.008v-1.993H9V23.153z
		 M42.864,28.867h-1.991v-1.989h1.991V28.867z M46.288,28.867h-1.994v-1.989h1.994V28.867z"/>
</g>
</svg>
